<svg width="1846" height="1846" viewBox="0 0 1846 1846" fill="none" xmlns="http://www.w3.org/2000/svg">
<g clip-path="url(#clip0_72_2)">
<path d="M477.415 859.346H222.793V1368.59H292.815C264.17 1444.97 216.43 1495.89 159.139 1495.89H477.415C423.308 1495.89 372.384 1444.97 343.739 1368.59H477.415V859.346Z" fill="#844414"/>
<path d="M318.276 1209.45C318.276 1368.59 248.255 1495.89 159.138 1495.89C70.0218 1495.89 0 1368.59 0 1209.45C0 1050.31 70.0218 923 159.138 923C248.255 923 318.276 1050.31 318.276 1209.45Z" fill="#CE8D5B"/>
<path d="M159.139 1384.5C149.592 1384.5 136.861 1378.13 130.493 1368.59C120.946 1349.49 95.4844 1295.38 95.4844 1209.45C95.4844 1123.51 120.946 1069.41 130.493 1050.31C140.041 1034.39 159.139 1031.21 175.053 1037.58C190.968 1047.13 194.152 1066.22 187.784 1082.14C178.237 1098.05 159.139 1139.43 159.139 1209.45C159.139 1279.47 178.237 1320.85 187.784 1336.76C197.332 1352.67 190.968 1371.77 175.053 1381.32C168.686 1381.32 165.503 1384.5 159.139 1384.5Z" fill="#844414"/>
<path d="M1686.86 923H477.416C566.532 923 636.554 1050.31 636.554 1209.45C636.554 1368.59 566.532 1495.89 477.416 1495.89H1686.86C1775.98 1495.89 1846 1368.59 1846 1209.45C1846 1050.31 1775.98 923 1686.86 923Z" fill="#844414"/>
<path d="M891.171 1082.14H611.091C591.993 1082.14 579.262 1069.41 579.262 1050.31C579.262 1031.21 591.993 1018.48 611.091 1018.48H891.174C910.273 1018.48 923.004 1031.21 923.004 1050.31C923 1069.41 910.269 1082.14 891.171 1082.14Z" fill="#CE8D5B"/>
<path d="M1209.45 1082.14H1018.48C999.381 1082.14 986.65 1069.41 986.65 1050.31C986.65 1031.21 999.381 1018.48 1018.48 1018.48H1209.45C1228.54 1018.48 1241.28 1031.21 1241.28 1050.31C1241.28 1069.41 1228.54 1082.14 1209.45 1082.14Z" fill="#CE8D5B"/>
<path d="M1782.35 1082.14H1336.76C1317.66 1082.14 1304.93 1069.41 1304.93 1050.31C1304.93 1031.21 1317.66 1018.48 1336.76 1018.48H1782.35C1801.44 1018.48 1814.18 1031.21 1814.18 1050.31C1814.17 1069.41 1801.44 1082.14 1782.35 1082.14Z" fill="#CE8D5B"/>
<path d="M1368.59 1241.28H1273.1C1254 1241.28 1241.27 1228.55 1241.27 1209.45C1241.27 1190.35 1254 1177.62 1273.1 1177.62H1368.59C1387.68 1177.62 1400.42 1190.35 1400.42 1209.45C1400.42 1228.55 1387.68 1241.28 1368.59 1241.28Z" fill="#CE8D5B"/>
<path d="M1082.14 1241.28H763.862C744.764 1241.28 732.033 1228.55 732.033 1209.45C732.033 1190.35 744.764 1177.62 763.862 1177.62H1082.14C1101.24 1177.62 1113.97 1190.35 1113.97 1209.45C1113.97 1228.55 1101.23 1241.28 1082.14 1241.28Z" fill="#CE8D5B"/>
<path d="M1814.17 1241.28H1527.72C1508.63 1241.28 1495.89 1228.55 1495.89 1209.45C1495.89 1190.35 1508.63 1177.62 1527.72 1177.62H1814.17C1833.27 1177.62 1846 1190.35 1846 1209.45C1846 1228.55 1833.27 1241.28 1814.17 1241.28Z" fill="#CE8D5B"/>
<path d="M923 1400.42H611.091C591.993 1400.42 579.262 1387.69 579.262 1368.59C579.262 1349.49 591.993 1336.76 611.091 1336.76H923C942.098 1336.76 954.829 1349.49 954.829 1368.59C954.829 1387.69 942.098 1400.42 923 1400.42Z" fill="#CE8D5B"/>
<path d="M1655.03 1400.42H1400.41C1381.31 1400.42 1368.58 1387.69 1368.58 1368.59C1368.58 1349.49 1381.31 1336.76 1400.41 1336.76H1655.03C1674.13 1336.76 1686.86 1349.49 1686.86 1368.59C1686.86 1387.69 1674.13 1400.42 1655.03 1400.42Z" fill="#CE8D5B"/>
<path d="M1177.62 1400.42H1113.97C1094.87 1400.42 1082.14 1387.69 1082.14 1368.59C1082.14 1349.49 1094.87 1336.76 1113.97 1336.76H1177.62C1196.72 1336.76 1209.45 1349.49 1209.45 1368.59C1209.45 1387.69 1196.72 1400.42 1177.62 1400.42Z" fill="#CE8D5B"/>
<path d="M1686.86 350.102H318.275C407.392 350.102 477.414 477.411 477.414 636.549C477.414 795.687 407.392 923 318.275 923H1686.86C1775.98 923 1846 795.691 1846 636.552C1846 477.414 1775.98 350.102 1686.86 350.102Z" fill="#9E5A23"/>
<path d="M732.032 509.24H451.948C432.85 509.24 420.119 496.509 420.119 477.411C420.119 458.313 432.85 445.582 451.948 445.582H732.032C751.13 445.582 763.861 458.313 763.861 477.411C763.861 496.509 751.13 509.24 732.032 509.24Z" fill="#844414"/>
<path d="M1368.58 509.24H859.345C840.247 509.24 827.516 496.509 827.516 477.411C827.516 458.313 840.247 445.582 859.345 445.582H1368.58C1387.68 445.582 1400.41 458.313 1400.41 477.411C1400.41 496.509 1387.68 509.24 1368.58 509.24Z" fill="#844414"/>
<path d="M1782.34 509.24H1336.76C1317.66 509.24 1304.93 496.509 1304.93 477.411C1304.93 458.313 1317.66 445.582 1336.76 445.582H1782.34C1801.44 445.582 1814.17 458.313 1814.17 477.411C1814.17 496.509 1801.44 509.24 1782.34 509.24Z" fill="#844414"/>
<path d="M1145.79 668.379H1050.31C1031.21 668.379 1018.48 655.648 1018.48 636.55C1018.48 617.452 1031.21 604.721 1050.31 604.721H1145.79C1164.89 604.721 1177.62 617.452 1177.62 636.55C1177.62 655.648 1164.89 668.379 1145.79 668.379Z" fill="#844414"/>
<path d="M923 668.379H604.724C585.625 668.379 572.895 655.648 572.895 636.55C572.895 617.452 585.625 604.721 604.724 604.721H923C942.098 604.721 954.829 617.452 954.829 636.55C954.829 655.648 942.098 668.379 923 668.379Z" fill="#844414"/>
<path d="M1368.58 668.379H1273.1C1254 668.379 1241.27 655.648 1241.27 636.55C1241.27 617.452 1254 604.721 1273.1 604.721H1368.58C1387.68 604.721 1400.41 617.452 1400.41 636.55C1400.41 655.648 1387.68 668.379 1368.58 668.379Z" fill="#844414"/>
<path d="M1814.17 668.379H1527.72C1508.63 668.379 1495.89 655.648 1495.89 636.55C1495.89 617.452 1508.63 604.721 1527.72 604.721H1814.17C1833.27 604.721 1846 617.452 1846 636.55C1846 655.648 1833.27 668.379 1814.17 668.379Z" fill="#844414"/>
<path d="M763.861 827.516H451.952C432.854 827.516 420.123 814.785 420.123 795.687C420.123 776.588 432.854 763.857 451.952 763.857H763.861C782.959 763.857 795.69 776.588 795.69 795.687C795.69 814.785 782.959 827.516 763.861 827.516Z" fill="#844414"/>
<path d="M1686.86 827.516H1432.24C1413.14 827.516 1400.41 814.785 1400.41 795.687C1400.41 776.588 1413.14 763.857 1432.24 763.857H1686.86C1705.96 763.857 1718.69 776.588 1718.69 795.687C1718.69 814.785 1705.96 827.516 1686.86 827.516Z" fill="#844414"/>
<path d="M1273.1 827.516H954.825C935.727 827.516 922.996 814.785 922.996 795.687C922.996 776.588 935.727 763.857 954.825 763.857H1273.1C1292.2 763.857 1304.93 776.588 1304.93 795.687C1304.93 814.785 1292.2 827.516 1273.1 827.516Z" fill="#844414"/>
<path d="M477.415 636.553C477.415 795.691 407.393 923 318.277 923C229.16 923 159.139 795.691 159.139 636.553C159.139 477.415 229.16 350.105 318.277 350.105C407.393 350.105 477.415 477.415 477.415 636.553Z" fill="#CE8D5B"/>
<path d="M318.276 811.602C308.728 811.602 295.997 805.235 289.63 795.687C280.083 776.589 254.621 722.486 254.621 636.549C254.621 550.613 280.083 496.509 289.63 477.411C299.177 461.497 318.276 458.313 334.19 464.68C350.105 474.227 353.288 493.326 346.921 509.24C337.374 525.155 318.276 566.531 318.276 636.549C318.276 706.567 337.374 747.947 346.921 763.858C356.468 779.773 350.105 798.867 334.19 808.418C327.823 808.422 324.639 811.602 318.276 811.602Z" fill="#844414"/>
<path d="M636.552 1209.45C636.552 1368.59 566.53 1495.89 477.414 1495.89C388.297 1495.89 318.275 1368.59 318.275 1209.45C318.275 1050.31 388.297 923 477.414 923C566.53 923 636.552 1050.31 636.552 1209.45Z" fill="#CE8D5B"/>
<path d="M477.414 1384.5C467.867 1384.5 455.136 1378.13 448.769 1368.59C439.222 1349.49 413.76 1295.38 413.76 1209.45C413.76 1123.51 439.222 1069.41 448.769 1050.31C458.316 1034.39 477.414 1031.21 493.329 1037.58C509.243 1047.13 512.427 1066.22 506.06 1082.14C496.512 1098.05 477.414 1139.43 477.414 1209.45C477.414 1279.47 496.512 1320.85 506.06 1336.76C515.607 1352.67 509.243 1371.77 493.329 1381.32C486.962 1381.32 483.778 1384.5 477.414 1384.5Z" fill="#844414"/>
</g>
<defs>
<clipPath id="clip0_72_2">
<rect width="1846" height="1846" fill="white"/>
</clipPath>
</defs>
</svg>
