<svg width="9600" height="540" viewBox="0 0 9600 540" fill="none" xmlns="http://www.w3.org/2000/svg">
<g clip-path="url(#clip0_54_2)">
<rect width="9600" height="540" fill="white"/>
<rect width="9600" height="540" fill="#9AF4EF"/>
<path d="M265.439 135.401C260.659 135.401 256.141 136.342 251.809 137.708C238.092 117.974 215.339 105 189.499 105C163.658 105 140.905 117.974 127.191 137.708C122.861 136.342 118.343 135.401 113.561 135.401C88.3972 135.401 68 155.818 68 181H311C311 155.818 290.603 135.401 265.439 135.401Z" fill="white"/>
<path d="M468.438 77.4006C465.547 77.4006 462.814 77.9702 460.193 78.7972C451.895 66.8525 438.131 59 422.499 59C406.867 59 393.103 66.8525 384.807 78.7972C382.188 77.9702 379.455 77.4006 376.562 77.4006C361.339 77.4006 349 89.758 349 105H496C496 89.758 483.661 77.4006 468.438 77.4006Z" fill="white"/>
<path d="M1293.44 147.401C1290.55 147.401 1287.81 147.97 1285.19 148.797C1276.9 136.852 1263.13 129 1247.5 129C1231.87 129 1218.1 136.852 1209.81 148.797C1207.19 147.97 1204.45 147.401 1201.56 147.401C1186.34 147.401 1174 159.758 1174 175H1321C1321 159.758 1308.66 147.401 1293.44 147.401Z" fill="white"/>
<path d="M1864.44 54.4006C1861.55 54.4006 1858.81 54.9702 1856.19 55.7972C1847.9 43.8525 1834.13 36 1818.5 36C1802.87 36 1789.1 43.8525 1780.81 55.7972C1778.19 54.9702 1775.45 54.4006 1772.56 54.4006C1757.34 54.4006 1745 66.758 1745 82H1892C1892 66.758 1879.66 54.4006 1864.44 54.4006Z" fill="white"/>
<path d="M2593.44 100.401C2590.55 100.401 2587.81 100.97 2585.19 101.797C2576.9 89.8525 2563.13 82 2547.5 82C2531.87 82 2518.1 89.8525 2509.81 101.797C2507.19 100.97 2504.45 100.401 2501.56 100.401C2486.34 100.401 2474 112.758 2474 128H2621C2621 112.758 2608.66 100.401 2593.44 100.401Z" fill="white"/>
<path d="M4052.44 100.401C4049.55 100.401 4046.81 100.97 4044.19 101.797C4035.9 89.8525 4022.13 82 4006.5 82C3990.87 82 3977.1 89.8525 3968.81 101.797C3966.19 100.97 3963.45 100.401 3960.56 100.401C3945.34 100.401 3933 112.758 3933 128H4080C4080 112.758 4067.66 100.401 4052.44 100.401Z" fill="white"/>
<path d="M5073.44 176.401C5070.55 176.401 5067.81 176.97 5065.19 177.797C5056.9 165.852 5043.13 158 5027.5 158C5011.87 158 4998.1 165.852 4989.81 177.797C4987.19 176.97 4984.45 176.401 4981.56 176.401C4966.34 176.401 4954 188.758 4954 204H5101C5101 188.758 5088.66 176.401 5073.44 176.401Z" fill="white"/>
<path d="M6021.44 92.4006C6018.55 92.4006 6015.81 92.9702 6013.19 93.7972C6004.9 81.8525 5991.13 74 5975.5 74C5959.87 74 5946.1 81.8525 5937.81 93.7972C5935.19 92.9702 5932.45 92.4006 5929.56 92.4006C5914.34 92.4006 5902 104.758 5902 120H6049C6049 104.758 6036.66 92.4006 6021.44 92.4006Z" fill="white"/>
<path d="M6600.44 138.401C6597.55 138.401 6594.81 138.97 6592.19 139.797C6583.9 127.852 6570.13 120 6554.5 120C6538.87 120 6525.1 127.852 6516.81 139.797C6514.19 138.97 6511.45 138.401 6508.56 138.401C6493.34 138.401 6481 150.758 6481 166H6628C6628 150.758 6615.66 138.401 6600.44 138.401Z" fill="white"/>
<path d="M7581.44 176.401C7578.55 176.401 7575.81 176.97 7573.19 177.797C7564.9 165.852 7551.13 158 7535.5 158C7519.87 158 7506.1 165.852 7497.81 177.797C7495.19 176.97 7492.45 176.401 7489.56 176.401C7474.34 176.401 7462 188.758 7462 204H7609C7609 188.758 7596.66 176.401 7581.44 176.401Z" fill="white"/>
<path d="M7122.44 153.401C7119.55 153.401 7116.81 153.97 7114.19 154.797C7105.9 142.852 7092.13 135 7076.5 135C7060.87 135 7047.1 142.852 7038.81 154.797C7036.19 153.97 7033.45 153.401 7030.56 153.401C7015.34 153.401 7003 165.758 7003 181H7150C7150 165.758 7137.66 153.401 7122.44 153.401Z" fill="white"/>
<path d="M8998.44 130.401C8995.55 130.401 8992.81 130.97 8990.19 131.797C8981.9 119.852 8968.13 112 8952.5 112C8936.87 112 8923.1 119.852 8914.81 131.797C8912.19 130.97 8909.45 130.401 8906.56 130.401C8891.34 130.401 8879 142.758 8879 158H9026C9026 142.758 9013.66 130.401 8998.44 130.401Z" fill="white"/>
<path d="M914.439 89.401C909.659 89.401 905.141 90.3421 900.809 91.7084C887.092 71.9736 864.339 59 838.499 59C812.658 59 789.905 71.9736 776.191 91.7084C771.861 90.3421 767.343 89.401 762.561 89.401C737.397 89.401 717 109.818 717 135H960C960 109.818 939.603 89.401 914.439 89.401Z" fill="white"/>
<path d="M1761.63 83.401C1756.85 83.401 1752.33 84.3421 1748 85.7084C1734.28 65.9736 1711.53 53 1685.69 53C1659.85 53 1637.09 65.9736 1623.38 85.7084C1619.05 84.3421 1614.53 83.401 1609.75 83.401C1584.59 83.401 1564.19 103.818 1564.19 129H1807.19C1807.19 103.818 1786.79 83.401 1761.63 83.401Z" fill="white"/>
<path d="M2745.44 59.401C2740.66 59.401 2736.14 60.3421 2731.81 61.7084C2718.09 41.9736 2695.34 29 2669.5 29C2643.66 29 2620.91 41.9736 2607.19 61.7084C2602.86 60.3421 2598.34 59.401 2593.56 59.401C2568.4 59.401 2548 79.8176 2548 105H2791C2791 79.8176 2770.6 59.401 2745.44 59.401Z" fill="white"/>
<path d="M3339.44 89.401C3334.66 89.401 3330.14 90.3421 3325.81 91.7084C3312.09 71.9736 3289.34 59 3263.5 59C3237.66 59 3214.91 71.9736 3201.19 91.7084C3196.86 90.3421 3192.34 89.401 3187.56 89.401C3162.4 89.401 3142 109.818 3142 135H3385C3385 109.818 3364.6 89.401 3339.44 89.401Z" fill="white"/>
<path d="M6538.44 127.401C6533.66 127.401 6529.14 128.342 6524.81 129.708C6511.09 109.974 6488.34 97 6462.5 97C6436.66 97 6413.91 109.974 6400.19 129.708C6395.86 128.342 6391.34 127.401 6386.56 127.401C6361.4 127.401 6341 147.818 6341 173H6584C6584 147.818 6563.6 127.401 6538.44 127.401Z" fill="white"/>
<path d="M7490.44 59.401C7485.66 59.401 7481.14 60.3421 7476.81 61.7084C7463.09 41.9736 7440.34 29 7414.5 29C7388.66 29 7365.91 41.9736 7352.19 61.7084C7347.86 60.3421 7343.34 59.401 7338.56 59.401C7313.4 59.401 7293 79.8176 7293 105H7536C7536 79.8176 7515.6 59.401 7490.44 59.401Z" fill="white"/>
<path d="M8206.44 127.401C8201.66 127.401 8197.14 128.342 8192.81 129.708C8179.09 109.974 8156.34 97 8130.5 97C8104.66 97 8081.91 109.974 8068.19 129.708C8063.86 128.342 8059.34 127.401 8054.56 127.401C8029.4 127.401 8009 147.818 8009 173H8252C8252 147.818 8231.6 127.401 8206.44 127.401Z" fill="white"/>
<path d="M8621.44 89.401C8616.66 89.401 8612.14 90.3421 8607.81 91.7084C8594.09 71.9736 8571.34 59 8545.5 59C8519.66 59 8496.91 71.9736 8483.19 91.7084C8478.86 90.3421 8474.34 89.401 8469.56 89.401C8444.4 89.401 8424 109.818 8424 135H8667C8667 109.818 8646.6 89.401 8621.44 89.401Z" fill="white"/>
<path d="M9378.44 97.401C9373.66 97.401 9369.14 98.3421 9364.81 99.7084C9351.09 79.9736 9328.34 67 9302.5 67C9276.66 67 9253.91 79.9736 9240.19 99.7084C9235.86 98.3421 9231.34 97.401 9226.56 97.401C9201.4 97.401 9181 117.818 9181 143H9424C9424 117.818 9403.6 97.401 9378.44 97.401Z" fill="white"/>
<path d="M4543.44 127.401C4538.66 127.401 4534.14 128.342 4529.81 129.708C4516.09 109.974 4493.34 97 4467.5 97C4441.66 97 4418.91 109.974 4405.19 129.708C4400.86 128.342 4396.34 127.401 4391.56 127.401C4366.4 127.401 4346 147.818 4346 173H4589C4589 147.818 4568.6 127.401 4543.44 127.401Z" fill="white"/>
<path d="M5495.44 59.401C5490.66 59.401 5486.14 60.3421 5481.81 61.7084C5468.09 41.9736 5445.34 29 5419.5 29C5393.66 29 5370.91 41.9736 5357.19 61.7084C5352.86 60.3421 5348.34 59.401 5343.56 59.401C5318.4 59.401 5298 79.8176 5298 105H5541C5541 79.8176 5520.6 59.401 5495.44 59.401Z" fill="white"/>
<rect x="1794" y="380" width="2200" height="160" fill="#38ABEC"/>
<path d="M0 372H1863.65C1882.48 372 1891.67 396.63 1878.59 410.173C1867.05 422.112 1855.71 435.342 1848.5 447.5C1828.54 481.146 1814 540 1814 540H0V372Z" fill="#52C883"/>
<path d="M0 372H1878.59C1892.99 372 1897 394.922 1885.08 403.009C1864.73 416.828 1849.9 441 1849.9 441C1849.9 441 1567.25 471.599 1385.5 471.5C1205.25 471.401 1105.5 436.279 924.951 441C730.66 446.081 622.35 469.695 428 468C260.53 466.539 0 441 0 441V372Z" fill="#34BE71"/>
<path d="M0 372H1914.47C1921.41 372 1922.52 384.327 1915.89 386.381C1895.2 392.79 1880.14 404 1880.14 404C1880.14 404 1630.87 417.201 1471 418.5C1263.59 420.185 1148.58 416.094 942 413C757.673 410.239 582.378 445.085 352 435.5C214.105 429.763 0 404 0 404V372Z" fill="#00A07D"/>
<path d="M0 372H1863.65C1882.48 372 1891.67 396.63 1878.59 410.173C1867.05 422.112 1855.71 435.342 1848.5 447.5C1828.54 481.146 1814 540 1814 540H0V372Z" fill="#52C883"/>
<path d="M0 372H1878.59C1892.99 372 1897 394.922 1885.08 403.009C1864.73 416.828 1849.9 441 1849.9 441C1849.9 441 1567.25 471.599 1385.5 471.5C1205.25 471.401 1105.5 436.279 924.951 441C730.66 446.081 622.35 469.695 428 468C260.53 466.539 0 441 0 441V372Z" fill="#34BE71"/>
<path d="M0 372H1914.47C1921.41 372 1922.52 384.327 1915.89 386.381C1895.2 392.79 1880.14 404 1880.14 404C1880.14 404 1630.87 417.201 1471 418.5C1263.59 420.185 1148.58 416.094 942 413C757.673 410.239 582.378 445.085 352 435.5C214.105 429.763 0 404 0 404V372Z" fill="#00A07D"/>
<path d="M7702 372H3861.04C3838.97 372 3832.01 405.291 3851.55 415.533C3871.51 425.992 3890.31 437.135 3902.95 447.5C3943.97 481.146 3973.85 540 3973.85 540H7702V372Z" fill="#FECCBA"/>
<path d="M7702 372H3824.42C3809.43 372 3806.88 398.449 3821.11 403.165C3863.02 417.053 3893.54 441.347 3893.54 441.347C3893.54 441.347 4475.45 472.1 4849.62 472C5220.71 471.901 5426.08 436.602 5797.77 441.347C6197.77 446.453 6420.75 470.186 6820.86 468.482C7165.64 467.014 7702 441.347 7702 441.347V372Z" fill="#DDAF9F"/>
<path d="M7702 372H3753.66C3741.91 372 3740.55 384.602 3752.17 386.343C3794.82 392.734 3825.89 403.915 3825.89 403.915C3825.89 403.915 4339.77 417.081 4669.36 418.377C5096.97 420.057 5334.08 415.977 5759.96 412.891C6139.97 410.137 6501.36 444.891 6976.31 435.331C7260.6 429.61 7702 403.915 7702 403.915V372Z" fill="#B49185"/>
<rect x="2003" y="472" width="174" height="39" rx="19.5" fill="#79CFFF"/>
<rect x="2024" y="433" width="66" height="39" rx="19.5" fill="#79CFFF"/>
<rect x="2437" y="433" width="111" height="39" rx="19.5" fill="#79CFFF"/>
<rect x="2469" y="394" width="66" height="39" rx="19.5" fill="#79CFFF"/>
<rect x="3037" y="491" width="157" height="39" rx="19.5" fill="#79CFFF"/>
<rect x="3050" y="456" width="66" height="39" rx="19.5" fill="#79CFFF"/>
<rect x="3536" y="441" width="174" height="39" rx="19.5" fill="#79CFFF"/>
<path d="M3604.5 421C3604.5 410.23 3613.23 401.5 3624 401.5H3651C3661.77 401.5 3670.5 410.23 3670.5 421C3670.5 431.77 3661.77 440.5 3651 440.5H3624C3613.23 440.5 3604.5 431.77 3604.5 421Z" fill="#79CFFF"/>
<rect x="7702" y="372" width="1898" height="168" fill="white"/>
<rect x="7702" y="384" width="1898" height="144" fill="#674447"/>
<rect x="7702" y="384" width="1898" height="53" fill="#8C665B"/>
<rect x="7702" y="472" width="1898" height="13" fill="#E9B668"/>
<rect x="7702" y="437" width="1898" height="13" fill="#E9B668"/>
<g clip-path="url(#clip1_54_2)">
<path d="M8797.48 118.99H8810.8V85.7013L8651 28L8491.2 85.7013V118.99H8504.52H8797.48Z" fill="#D5D5D6"/>
<path d="M8513.14 99.0184L8651 49.2324L8788.86 99.0184H8513.14Z" fill="#C9C8C8"/>
<path d="M8660.83 52.7806L8651 49.2324L8513.14 99.0184H8532.79L8660.83 52.7806Z" fill="#B2B2B2"/>
<path d="M8770.85 155.614H8777.5V142.295H8724.24V155.614H8730.9H8770.85Z" fill="#B2B2B2"/>
<path d="M8730.9 298.758H8724.24V312.076H8777.5V298.758H8770.85H8730.9Z" fill="#B2B2B2"/>
<path d="M8770.85 155.615H8730.89V298.758H8770.85V155.615Z" fill="#C0BFC0"/>
<path d="M8670.97 155.615H8631.02V298.758H8670.97V155.615Z" fill="#C0BFC0"/>
<path d="M8571.11 155.615H8531.15V298.758H8571.11V155.615Z" fill="#C0BFC0"/>
<path d="M8554.46 155.615H8547.8V298.758H8554.46V155.615Z" fill="#B2B2B2"/>
<path d="M8541.14 155.615H8534.48V298.758H8541.14V155.615Z" fill="#B2B2B2"/>
<path d="M8567.78 155.615H8561.12V298.758H8567.78V155.615Z" fill="#B2B2B2"/>
<path d="M8654.33 155.615H8647.67V298.758H8654.33V155.615Z" fill="#B2B2B2"/>
<path d="M8641.01 155.615H8634.36V298.758H8641.01V155.615Z" fill="#B2B2B2"/>
<path d="M8667.64 155.615H8660.99V298.758H8667.64V155.615Z" fill="#B2B2B2"/>
<path d="M8754.2 155.615H8747.54V298.758H8754.2V155.615Z" fill="#B2B2B2"/>
<path d="M8740.88 155.615H8734.23V298.758H8740.88V155.615Z" fill="#B2B2B2"/>
<path d="M8767.52 155.615H8760.86V298.758H8767.52V155.615Z" fill="#B2B2B2"/>
<path d="M8670.97 155.614H8677.64V142.295H8624.37V155.614H8631.02H8670.97Z" fill="#B2B2B2"/>
<path d="M8631.02 298.758H8624.37V312.076H8677.64V298.758H8670.97H8631.02Z" fill="#B2B2B2"/>
<path d="M8571.1 155.614H8577.76V142.295H8524.5V155.614H8531.15H8571.1Z" fill="#B2B2B2"/>
<path d="M8531.15 298.758H8524.5V312.076H8577.76V298.758H8571.1H8531.15Z" fill="#B2B2B2"/>
<path d="M8504.52 338.707H8491.2V372.001H8810.8V338.707H8797.48H8504.52Z" fill="#D5D5D6"/>
<path d="M8797.48 312.076H8504.52V338.707H8797.48V312.076Z" fill="#C0BFC0"/>
<path d="M8797.48 118.99H8504.52V142.296H8797.48V118.99Z" fill="#C0BFC0"/>
</g>
<rect x="7744" y="156" width="72" height="216" fill="#9FC3DD"/>
<rect x="7805" y="251" width="72" height="121" fill="#FDEFDB"/>
<rect x="7869" y="281" width="72" height="91" fill="#B39191"/>
<rect x="7920" y="219" width="72" height="153" fill="#7FAAB8"/>
<rect x="7982" y="240" width="72" height="132" fill="#9E8282"/>
<rect x="8045" y="156" width="72" height="216" fill="#B2B9C9"/>
<rect x="8117" y="191" width="72" height="181" fill="#FDEFDB"/>
<rect x="8170" y="240" width="72" height="132" fill="#7FAAB8"/>
<rect x="8242" y="251" width="72" height="121" fill="#B2B9C9"/>
<rect x="8314" y="224" width="72" height="148" fill="#B39191"/>
<rect x="8386" y="271" width="72" height="101" fill="#9FC3DD"/>
<rect width="72" height="216" transform="matrix(-1 0 0 1 9576 156)" fill="#9FC3DD"/>
<rect width="72" height="121" transform="matrix(-1 0 0 1 9515 251)" fill="#FDEFDB"/>
<rect width="72" height="91" transform="matrix(-1 0 0 1 9451 281)" fill="#B39191"/>
<rect width="72" height="153" transform="matrix(-1 0 0 1 9400 219)" fill="#7FAAB8"/>
<rect width="72" height="132" transform="matrix(-1 0 0 1 9338 240)" fill="#9E8282"/>
<rect width="72" height="216" transform="matrix(-1 0 0 1 9275 156)" fill="#B2B9C9"/>
<rect width="72" height="181" transform="matrix(-1 0 0 1 9203 191)" fill="#FDEFDB"/>
<rect width="72" height="132" transform="matrix(-1 0 0 1 9150 240)" fill="#7FAAB8"/>
<rect width="72" height="121" transform="matrix(-1 0 0 1 9078 251)" fill="#B2B9C9"/>
<rect width="72" height="148" transform="matrix(-1 0 0 1 9006 224)" fill="#B39191"/>
<rect width="72" height="101" transform="matrix(-1 0 0 1 8934 271)" fill="#9FC3DD"/>
<rect x="10" y="228" width="5" height="232" fill="black"/>
<path d="M12.4121 297.568V229.434H17.8721C18.7745 229.434 19.5088 228.695 19.5088 227.787V227.648H23.3321V227.787C23.3321 228.695 24.0663 229.434 24.9688 229.434H115.59V297.568H12.4121ZM64.0012 236.262C63.7129 236.262 63.4285 236.34 63.1791 236.486L19.4154 262.077C18.9131 262.37 18.601 262.916 18.601 263.501C18.601 264.086 18.913 264.632 19.415 264.925L63.1784 290.516C63.4277 290.662 63.7121 290.739 64.0007 290.739C64.2894 290.739 64.5738 290.662 64.8231 290.516L95.5372 272.556C96.3175 272.1 96.5835 271.089 96.1303 270.304L96.0612 270.184L99.3671 268.251L99.4361 268.371C99.7282 268.877 100.271 269.191 100.853 269.191C101.14 269.191 101.424 269.114 101.674 268.968L108.587 264.925C109.089 264.632 109.401 264.086 109.401 263.501C109.401 262.916 109.089 262.37 108.587 262.077L64.8233 236.486C64.5738 236.34 64.2896 236.262 64.0012 236.262Z" fill="#259245"/>
<path d="M17.8694 229.571H12.5469V297.428H115.45V229.571H24.9662C23.9862 229.571 23.192 228.772 23.192 227.785H19.6435C19.6435 228.771 18.8495 229.571 17.8694 229.571ZM63.1072 236.364C63.6584 236.042 64.3385 236.042 64.8896 236.364L108.653 261.955C109.2 262.275 109.536 262.863 109.536 263.499C109.536 264.136 109.2 264.724 108.653 265.043L101.74 269.086C100.893 269.581 99.807 269.291 99.3147 268.439L96.2467 270.233C96.7386 271.085 96.451 272.179 95.6036 272.674L64.8893 290.634C64.6137 290.796 64.3059 290.876 63.9979 290.876C63.6901 290.876 63.3822 290.796 63.1066 290.634L19.3431 265.043C18.7971 264.724 18.4608 264.136 18.4608 263.499C18.4608 262.863 18.7971 262.275 19.3435 261.955L63.1072 236.364Z" fill="#259245"/>
<path d="M117.226 226H24.9678C23.9878 226 23.1936 226.799 23.1936 227.786C23.1936 228.772 23.9878 229.571 24.9678 229.571H115.452V297.428H12.5485V229.572H17.871C18.8511 229.572 19.6451 228.772 19.6451 227.786C19.6451 226.799 18.8511 226 17.871 226H10.7742C9.79406 226 9 226.799 9 227.786V299.214C9 300.201 9.79406 301 10.7742 301H117.226C118.206 301 119 300.201 119 299.214V227.786C119 226.799 118.206 226 117.226 226Z" fill="black"/>
<path d="M23.4961 263.501L64.0014 239.814L104.507 263.501L100.03 266.118C99.2495 266.575 98.9835 267.585 99.4367 268.371L99.5059 268.49L96.1998 270.423L96.1308 270.304C95.8386 269.798 95.2956 269.484 94.7136 269.484C94.4266 269.484 94.143 269.561 93.8933 269.707L64.0014 287.186L23.4961 263.501ZM64.0014 247.321C55.1378 247.321 47.9266 254.579 47.9266 263.501C47.9266 272.422 55.1378 279.68 64.0014 279.68C69.9651 279.68 75.4108 276.373 78.2132 271.049L78.2176 271.041L78.2231 271.033C78.3193 270.899 78.3951 270.75 78.448 270.592L78.4509 270.583L78.4548 270.575C79.5306 268.357 80.0762 265.977 80.0762 263.5C80.0763 254.579 72.8652 247.321 64.0014 247.321Z" fill="#FFE000"/>
<path d="M99.9606 265.999L104.233 263.501L64.0012 239.975L23.7695 263.501L64.0012 287.026L93.8241 269.587C94.6709 269.092 95.7569 269.381 96.2496 270.234L99.3177 268.44C98.8256 267.587 99.1133 266.494 99.9606 265.999ZM64.0012 279.818C55.0617 279.818 47.7889 272.498 47.7889 263.501C47.7889 254.503 55.0618 247.183 64.0012 247.183C72.9407 247.183 80.2136 254.503 80.2136 263.501C80.2136 266.058 79.6246 268.479 78.5782 270.636C78.5214 270.806 78.4396 270.967 78.3345 271.114C75.612 276.286 70.2099 279.818 64.0012 279.818Z" fill="#FFE000"/>
<path d="M18.4629 263.5C18.4629 264.136 18.7992 264.724 19.3456 265.044L63.1092 290.635C63.3847 290.796 63.6925 290.876 64.0005 290.876C64.3085 290.876 64.6163 290.796 64.8917 290.635L95.606 272.674C96.4532 272.179 96.7409 271.086 96.2489 270.233C95.7561 269.38 94.6704 269.091 93.8234 269.586L64.0006 287.026L23.7689 263.5L64.0006 239.974L104.232 263.5L99.9598 265.998C99.1125 266.494 98.8248 267.587 99.3168 268.439C99.8091 269.292 100.895 269.582 101.742 269.087L108.655 265.044C109.202 264.724 109.538 264.136 109.538 263.5C109.538 262.864 109.202 262.275 108.655 261.956L64.8916 236.365C64.3405 236.042 63.6604 236.042 63.1092 236.365L19.3458 261.956C18.7994 262.275 18.4629 262.864 18.4629 263.5Z" fill="black"/>
<path d="M76.3316 265.928C73.7856 262.365 70.308 259.601 66.2747 257.935C63.4568 256.771 60.4852 256.181 57.4421 256.181C56.133 256.181 54.8142 256.294 53.5224 256.516L53.2051 256.57L53.3853 256.302C55.777 252.741 59.7444 250.615 63.9983 250.615C71.057 250.615 76.7998 256.395 76.7998 263.5C76.7998 264.284 76.7253 265.082 76.5785 265.873L76.5192 266.191L76.3316 265.928Z" fill="#103B9B"/>
<path d="M66.3296 257.808C70.4141 259.495 73.9035 262.29 76.4458 265.848C76.5873 265.086 76.665 264.302 76.665 263.5C76.665 256.472 70.9837 250.754 64.0009 250.754C59.6361 250.754 55.7799 252.988 53.502 256.38C57.7991 255.642 62.2397 256.119 66.3296 257.808Z" fill="#103B9B"/>
<path d="M64.0008 276.385C56.942 276.385 51.1992 270.604 51.1992 263.5C51.1992 262.47 51.3238 261.437 51.5694 260.43L51.5881 260.353L51.6631 260.33C53.537 259.761 55.4785 259.473 57.4335 259.473C60.0497 259.473 62.6069 259.981 65.0342 260.983C69.2683 262.733 72.8064 265.919 74.9968 269.955L75.0343 270.024L74.994 270.092C72.6882 273.973 68.4757 276.385 64.0008 276.385Z" fill="#103B9B"/>
<path d="M64.9833 261.112C60.7461 259.362 56.0651 259.139 51.7041 260.463C51.4665 261.437 51.3379 262.453 51.3379 263.5C51.3379 270.528 57.0191 276.246 64.0019 276.246C68.6184 276.246 72.6643 273.746 74.8775 270.022C72.697 266.004 69.2141 262.86 64.9833 261.112Z" fill="#103B9B"/>
<path d="M78.334 271.116C78.4393 270.969 78.5211 270.807 78.5776 270.637C78.4997 270.798 78.4173 270.957 78.334 271.116Z" fill="white"/>
<path d="M64.9807 261.109C69.2117 262.857 72.6943 266.002 74.8746 270.019C75.6272 268.753 76.1655 267.345 76.4442 265.845C73.9018 262.288 70.4126 259.493 66.3279 257.806C62.2381 256.116 57.7977 255.639 53.5001 256.377C52.6763 257.604 52.0617 258.982 51.7012 260.46C56.0624 259.136 60.7433 259.359 64.9807 261.109Z" fill="white"/>
<path d="M80.2118 263.499C80.2118 254.502 72.9389 247.182 63.9995 247.182C55.06 247.182 47.7871 254.502 47.7871 263.499C47.7871 272.497 55.06 279.817 63.9995 279.817C70.2082 279.817 75.6103 276.284 78.3328 271.113C78.416 270.954 78.4985 270.795 78.5764 270.634C79.6228 268.478 80.2118 266.057 80.2118 263.499ZM63.9995 276.245C57.0165 276.245 51.3354 270.527 51.3354 263.499C51.3354 262.453 51.4641 261.436 51.7016 260.462C52.0621 258.984 52.6768 257.605 53.5004 256.379C55.7785 252.987 59.6347 250.753 63.9993 250.753C70.9823 250.753 76.6634 256.471 76.6634 263.499C76.6634 264.302 76.586 265.085 76.4443 265.847C76.1656 267.346 75.6273 268.754 74.8748 270.021C72.6618 273.745 68.6159 276.245 63.9995 276.245Z" fill="black"/>
</g>
<defs>
<clipPath id="clip0_54_2">
<rect width="9600" height="540" fill="white"/>
</clipPath>
<clipPath id="clip1_54_2">
<rect width="344" height="344" fill="white" transform="translate(8479 28)"/>
</clipPath>
</defs>
</svg>
